<?xml version="1.0" encoding="utf-8"?><!-- Uploaded to: SVG Repo, www.svgrepo.com, Generator: SVG Repo Mixer Tools -->
<svg fill="#000000" width="800px" height="800px" viewBox="0 0 24 24" id="house-storm-2" data-name="Flat Color" xmlns="http://www.w3.org/2000/svg" class="icon flat-color"><path id="primary" d="M3.42,9.9l8-5.71a1,1,0,0,1,1.16,0l8,5.71a1,1,0,0,1-1.16,1.62l-.42-.3V21a1,1,0,0,1-1,1H6a1,1,0,0,1-1-1V11.22l-.42.3a1,1,0,0,1-.58.19A1,1,0,0,1,3.42,9.9Z" style="fill: rgb(0, 0, 0);"></path><path id="primary-2" data-name="primary" d="M4,22H20a1,1,0,0,0,0-2H4a1,1,0,0,0,0,2Z" style="fill: rgb(0, 0, 0);"></path><path id="secondary" d="M10,14h4a1,1,0,0,1,1,1v6a1,1,0,0,1-1,1H10a1,1,0,0,1-1-1V15A1,1,0,0,1,10,14ZM8.89,11.45l2-4A1,1,0,0,0,10,6H7.62L8.89,3.45a1,1,0,0,0-1.78-.9l-2,4A1,1,0,0,0,6,8H8.38L7.11,10.55a1,1,0,0,0,.44,1.34A.93.93,0,0,0,8,12,1,1,0,0,0,8.89,11.45Z" style="fill: rgb(44, 169, 188);"></path></svg>